# xmcd
#
# Track frame offsets:
#	188
#	12363
#	25388
#	37013
#	48638
#	57788
#	69188
#	79988
#	97613
#	110588
#	122963
#	144263
#	162863
#	173438
#
# Disc length: 2476 seconds
#
# Revision: 0
# Processed by: cddbd v1.5.2PL0 Copyright (c) Steve Scherf et al.
# Submitted via: audiograbber 1.83.01
#
DISCID=af09aa0e
DTITLE=Various Artist - Greatest Hits Of Country CD1
DYEAR=1999
DGENRE=Country
TTITLE0=Johnny Cash - I Walk The Line
TTITLE1=Kenny Rogers - Ruby Don't Take Your Love To Town
TTITLE2=Dolly Parton - Letter To Heaven
TTITLE3=Willie Nelson - Night Life
TTITLE4=Freddy Fender - Jambalaya
TTITLE5=Roger Miller - King of the Road
TTITLE6=Waylong Jennings - Sally Was a Good Old Girl
TTITLE7=Sonny Fisher - I Can Help
TTITLE8=Lynn Anderson - The Rose Garden
TTITLE9=Patsy Cline - Crazy
TTITLE10=Tanya Tucker - Baby I'm Yours
TTITLE11=Charlie Rich - Let's Take It Nice and Easy
TTITLE12=Wanda Jackson - Stupid Cupid
TTITLE13=Ike and Tina Turner - Stand by Your Man
EXTD=
EXTT0=
EXTT1=
EXTT2=
EXTT3=
EXTT4=
EXTT5=
EXTT6=
EXTT7=
EXTT8=
EXTT9=
EXTT10=
EXTT11=
EXTT12=
EXTT13=
PLAYORDER=
